<svg width="20" height="19" viewBox="0 0 20 19" fill="none" xmlns="http://www.w3.org/2000/svg">
<path d="M16.1766 13.2284C16.0506 13.3549 15.954 13.5077 15.8938 13.6758C15.8335 13.844 15.8111 14.0233 15.8281 14.2011C15.9135 15.0238 16.0752 15.8369 16.3114 16.6296C14.6175 16.2374 13.5829 15.7833 13.113 15.5453C12.8464 15.4103 12.5395 15.3783 12.2508 15.4554C11.4234 15.676 10.5705 15.7871 9.71418 15.7857C4.8619 15.7857 1.21418 12.3772 1.21418 8.5C1.21418 4.624 4.8619 1.21429 9.71418 1.21429C14.5665 1.21429 18.2142 4.624 18.2142 8.5C18.2142 10.2826 17.465 11.9364 16.1766 13.2284ZM16.7753 17.9702C17.063 18.0272 17.3516 18.0795 17.641 18.1269C17.8839 18.1657 18.0685 17.9131 17.9725 17.6873C17.8647 17.433 17.7659 17.175 17.6763 16.9138L17.6726 16.9016C17.3715 16.0274 17.1262 15.0219 17.0363 14.0857C18.5263 12.5921 19.4285 10.6371 19.4285 8.5C19.4285 3.80557 15.0789 0 9.71418 0C4.34947 0 -0.000104904 3.80557 -0.000104904 8.5C-0.000104904 13.1944 4.34947 17 9.71418 17C10.6763 17.0013 11.6345 16.8764 12.5641 16.6284C13.1955 16.9478 14.5543 17.5294 16.7753 17.9702Z" fill="white"/>
</svg>
