<svg width="18" height="22" viewBox="0 0 18 22" fill="none" xmlns="http://www.w3.org/2000/svg">
<path d="M4.75 7.75V3.55C4.75 2.0036 6.0036 0.75 7.55 0.75H9.95C11.4964 0.75 12.75 2.0036 12.75 3.55V4.25" stroke="#B0BABF" stroke-width="1.5" stroke-linecap="round"/>
<path fill-rule="evenodd" clip-rule="evenodd" d="M9.15538 6.70834C8.88601 6.67738 8.61399 6.67738 8.34462 6.70834L3.14462 7.30604C1.35265 7.51202 0 9.02905 0 10.8328V17.0122C0 18.7401 1.24407 20.217 2.94683 20.5106L8.14683 21.4071C8.546 21.4759 8.954 21.4759 9.35317 21.4071L14.5532 20.5106C16.2559 20.217 17.5 18.7401 17.5 17.0122V10.8328C17.5 9.02905 16.1474 7.51202 14.3554 7.30604L9.15538 6.70834ZM6.88892 12.9723C6.88892 11.9444 7.72216 11.1111 8.75003 11.1111C9.77789 11.1111 10.6111 11.9444 10.6111 12.9723C10.6111 13.7333 10.1544 14.3876 9.5 14.6761V16.3057C9.5 16.7199 9.16421 17.0557 8.75 17.0557C8.33579 17.0557 8 16.7199 8 16.3057V14.6761C7.34567 14.3876 6.88892 13.7333 6.88892 12.9723Z" fill="#B0BABF"/>
</svg>
