<svg width="16" height="16" viewBox="0 0 16 16" fill="none" xmlns="http://www.w3.org/2000/svg">
<g clip-path="url(#clip0_1_258)">
<path d="M15 4.09207V10.844C15 11.9974 14.0749 12.9361 12.9378 12.9361H6.39514L2.0549 16V12.9361C0.921112 12.9322 0 11.9951 0 10.844V4.09207C0 2.93853 0.92514 2 2.06223 2H12.9378C14.0749 2 15 2.93853 15 4.09207Z" fill="#FFB800"/>
<path d="M16 4.1043V10.8957C16 12.0559 15.0135 13 13.801 13H8V2H13.801C15.0135 2 16 2.94402 16 4.1043Z" fill="#FF8600"/>
<path d="M5 5H12V6H5V5Z" fill="white"/>
<path d="M5 7H12V8H5V7Z" fill="white"/>
<path d="M5 9H12V10H5V9Z" fill="white"/>
<path d="M8 5H11V6H8V5Z" fill="#E1E1E3"/>
<path d="M8 7H11V8H8V7Z" fill="#E1E1E3"/>
<path d="M8 8H11V9H8V8Z" fill="#E1E1E3"/>
</g>
<defs>
<clipPath id="clip0_1_258">
<rect width="16" height="16" fill="white"/>
</clipPath>
</defs>
</svg>
