<svg width="26" height="26" viewBox="0 0 26 26" fill="none" xmlns="http://www.w3.org/2000/svg">
<path d="M14.069 13.0589L4.04178 14.7061C3.9265 14.725 3.81832 14.7736 3.72811 14.8469C3.63791 14.9201 3.56886 15.0155 3.52791 15.1234L0.0705707 24.2556C-0.259587 25.0956 0.63104 25.8962 1.44845 25.492L25.4115 13.6797C25.5771 13.5979 25.7164 13.4722 25.8137 13.3168C25.9111 13.1614 25.9626 12.9824 25.9626 12.7997C25.9626 12.6171 25.9111 12.438 25.8137 12.2826C25.7164 12.1272 25.5771 12.0015 25.4115 11.9197L1.44845 0.107437C0.63104 -0.295493 -0.259587 0.505116 0.0705707 1.34379L3.52924 10.476C3.57019 10.5839 3.63924 10.6793 3.72945 10.7525C3.81965 10.8258 3.92783 10.8744 4.04312 10.8933L14.0703 12.5405C14.1329 12.5503 14.1898 12.5818 14.2309 12.6293C14.272 12.6769 14.2946 12.7373 14.2946 12.7997C14.2946 12.8622 14.272 12.9226 14.2309 12.9701C14.1898 13.0176 14.1329 13.0491 14.0703 13.0589H14.069Z" fill="white"/>
</svg>
