<svg width="76" height="50" viewBox="0 0 76 50" fill="none" xmlns="http://www.w3.org/2000/svg">
<path d="M55.1 0C58.2469 0 60.8 2.55194 60.8 5.7C60.8 7.49313 59.9569 9.17937 58.52 10.26L56.8694 11.495C48.9606 12.255 42.3344 17.4325 39.4963 24.5338L32.68 29.64C31.3263 30.6494 29.4738 30.6494 28.12 29.64L2.28 10.26C0.844669 9.17937 0 7.49313 0 5.7C0 2.55194 2.55194 0 5.7 0H55.1ZM34.96 32.68L38.095 30.3288C38.0356 30.9819 38 31.635 38 32.3C38 37.3469 39.7931 41.99 42.7738 45.6H7.6C3.40219 45.6 0 42.1919 0 38V13.3L25.84 32.68C28.5475 34.7106 32.2525 34.7106 34.96 32.68ZM76 32.3C76 41.7406 68.3406 49.4 58.9 49.4C49.4594 49.4 41.8 41.7406 41.8 32.3C41.8 22.8594 49.4594 15.2 58.9 15.2C68.3406 15.2 76 22.8594 76 32.3ZM64.2081 27.1581L57 34.3663L53.5919 30.9581C52.8556 30.21 51.6444 30.21 50.9081 30.9581C50.16 31.6944 50.16 32.9056 50.9081 33.6419L55.6581 38.3919C56.3944 39.14 57.6056 39.14 58.3419 38.3919L66.8919 29.8419C67.64 29.1056 67.64 27.8944 66.8919 27.1581C66.1556 26.41 64.9444 26.41 64.2081 27.1581Z" fill="#84919A"/>
</svg>
